<?xml version="1.0" encoding="utf-8"?>
<!-- Generator: Adobe Illustrator 21.0.0, SVG Export Plug-In . SVG Version: 6.00 Build 0)  -->
<svg version="1.1" id="Layer_1" xmlns="http://www.w3.org/2000/svg" xmlns:xlink="http://www.w3.org/1999/xlink" x="0px" y="0px"
	 viewBox="0 0 67 48" style="enable-background:new 0 0 67 48;" xml:space="preserve">
<style type="text/css">
	.st0{clip-path:url(#SVGID_2_);fill-rule:evenodd;clip-rule:evenodd;fill:#314057;}
</style>
<g>
	<defs>
		<rect id="SVGID_1_" width="67" height="48"/>
	</defs>
	<use xlink:href="#SVGID_1_"  style="overflow:visible;fill-rule:evenodd;clip-rule:evenodd;fill:#FCFCFC;"/>
	<clipPath id="SVGID_2_">
		<use xlink:href="#SVGID_1_"  style="overflow:visible;"/>
	</clipPath>
	<path class="st0" d="M27,34.7c-1.8-1.1-2.5-2.1-2.2-3.8C26.4,31.5,27,32.7,27,34.7z"/>
	<path class="st0" d="M40.6,34.6c0-2,0.7-3.1,2.2-3.9C43.1,32.6,42.4,33.6,40.6,34.6z"/>
	<path class="st0" d="M2.5,36.3c1.7,1,2.3,2.1,2.2,3.7C3,39.4,2.5,38.2,2.5,36.3z"/>
	<path class="st0" d="M65.2,36.9c-0.2,1.4-0.7,2.5-2.1,3.2C63,37.7,63.4,37.1,65.2,36.9z"/>
	<path class="st0" d="M5.5,8.6c0.1,2.2-0.1,2.5-2.1,3.4C3.5,10.4,4.1,9.3,5.5,8.6z"/>
	<path class="st0" d="M65.3,12.6c-1.9-0.9-2.4-2-2.3-3.7C64.6,9.5,65,10.6,65.3,12.6z"/>
	<path class="st0" d="M24.8,18c-0.3-1.7,0.4-2.7,1.8-3.5C27,16.4,26.9,16.7,24.8,18z"/>
	<path class="st0" d="M42.9,18.2c-1.7-0.9-2.2-2-2.3-3.8C42.4,15.1,42.9,16.3,42.9,18.2z"/>
	<path class="st0" d="M20,2.5c-1.7,0.9-2.8,0.8-4.3,0C17.2,1.4,18.4,1.4,20,2.5z"/>
	<path class="st0" d="M47.8,2.5c1.4-1.1,2.7-1.1,4.1,0C50.4,3.4,49.2,3.5,47.8,2.5z"/>
	<path class="st0" d="M19.9,46.4c-1.4,1.1-2.7,1-4.1,0C17.2,45.5,18.5,45.4,19.9,46.4z"/>
	<path class="st0" d="M47.6,46.4c1.7-1,2.9-0.8,4.4-0.2C50.5,47.6,49.2,47.4,47.6,46.4z"/>
	<path class="st0" d="M57.9,24.5c-1.3,0.9-2.4,0.9-3.7,0.1C55.8,23.4,55.9,23.4,57.9,24.5z"/>
	<path class="st0" d="M9.5,24.5c1.5-1,2.7-1,4.1,0C12.2,25.4,11.1,25.4,9.5,24.5z"/>
</g>
</svg>
